<?xml version="1.0" encoding="UTF-8"?>
<!DOCTYPE svg PUBLIC "-//W3C//DTD SVG 1.1//EN" "http://www.w3.org/Graphics/SVG/1.1/DTD/svg11.dtd">
<svg xmlns="http://www.w3.org/2000/svg" version="1.1" width="380px" height="250px" style="shape-rendering:geometricPrecision; text-rendering:geometricPrecision; image-rendering:optimizeQuality; fill-rule:evenodd; clip-rule:evenodd" xmlns:xlink="http://www.w3.org/1999/xlink">
<g><path style="opacity:1" fill="#fcfcfc" d="M -0.5,-0.5 C 126.167,-0.5 252.833,-0.5 379.5,-0.5C 379.5,39.5 379.5,79.5 379.5,119.5C 376.415,114.088 371.748,111.088 365.5,110.5C 364.509,102.309 359.842,97.6418 351.5,96.5C 343.064,96.9394 338.064,101.273 336.5,109.5C 330.659,109.419 326.326,111.919 323.5,117C 318.771,117.273 314.104,117.939 309.5,119C 305.797,122.396 304.631,126.563 306,131.5C 306.903,132.701 308.069,133.535 309.5,134C 330.5,134.667 351.5,134.667 372.5,134C 375.266,132.629 377.599,130.796 379.5,128.5C 379.5,168.833 379.5,209.167 379.5,249.5C 252.833,249.5 126.167,249.5 -0.5,249.5C -0.5,207.167 -0.5,164.833 -0.5,122.5C 0.961599,123.458 2.29493,124.624 3.5,126C 16.1667,126.667 28.8333,126.667 41.5,126C 43.3398,123.174 44.0065,120.007 43.5,116.5C 34.0179,115.092 26.3513,110.592 20.5,103C 13.9993,101.416 9.66597,103.749 7.5,110C 4.22628,111.122 1.55961,112.956 -0.5,115.5C -0.5,76.8333 -0.5,38.1667 -0.5,-0.5 Z"/></g>
<g><path style="opacity:1" fill="#2e364c" d="M 226.5,52.5 C 229.931,54.3477 231.597,57.3477 231.5,61.5C 227.854,61.4234 224.521,60.4234 221.5,58.5C 223.19,56.4807 224.856,54.4807 226.5,52.5 Z"/></g>
<g><path style="opacity:1" fill="#cedaf4" d="M 226.5,55.5 C 228.048,55.8212 228.715,56.8212 228.5,58.5C 225.752,58.5983 225.086,57.5983 226.5,55.5 Z"/></g>
<g><path style="opacity:1" fill="#373843" d="M 170.5,61.5 C 171.833,61.5 173.167,61.5 174.5,61.5C 174.5,62.5 174.5,63.5 174.5,64.5C 173.167,64.5 171.833,64.5 170.5,64.5C 170.5,63.5 170.5,62.5 170.5,61.5 Z"/></g>
<g><path style="opacity:1" fill="#b9b5bb" d="M 107.5,80.5 C 109.585,81.3503 111.585,81.6837 113.5,81.5C 112.289,82.7202 112.289,83.8869 113.5,85C 111.866,85.4935 110.199,85.6602 108.5,85.5C 108.371,83.7839 108.038,82.1172 107.5,80.5 Z"/></g>
<g><path style="opacity:1" fill="#d7d7d7" d="M 331.5,39.5 C 348.356,37.8267 359.523,44.8267 365,60.5C 366.828,69.007 364.661,76.1736 358.5,82C 356.913,82.8624 355.246,83.5291 353.5,84C 325.833,84.6667 298.167,84.6667 270.5,84C 263.882,77.2194 264.216,70.5528 271.5,64C 277.774,60.6238 283.94,60.7905 290,64.5C 291,64.1667 292,63.8333 293,63.5C 295.393,59.4258 298.227,55.5925 301.5,52C 306.457,50.7517 311.457,50.2517 316.5,50.5C 320.677,45.5912 325.677,41.9245 331.5,39.5 Z"/></g>
<g><path style="opacity:1" fill="#fcfcfc" d="M 330.5,42.5 C 344.918,40.292 355.418,45.6253 362,58.5C 362.667,63.5 362.667,68.5 362,73.5C 360.16,77.3656 357.326,80.1989 353.5,82C 326.167,82.6667 298.833,82.6667 271.5,82C 266.829,75.4015 267.829,69.7348 274.5,65C 279.968,63.7762 284.968,64.6095 289.5,67.5C 292.115,66.7308 294.781,66.3975 297.5,66.5C 296.461,60.748 298.461,56.5813 303.5,54C 306.833,53.3333 310.167,53.3333 313.5,54C 314.563,55.1882 315.897,55.6882 317.5,55.5C 317.585,53.0712 318.585,51.0712 320.5,49.5C 323.584,46.6403 326.918,44.3069 330.5,42.5 Z"/></g>
<g><path style="opacity:1" fill="#81808b" d="M 183.5,92.5 C 181.864,88.7003 179.03,86.0337 175,84.5C 174.5,84.6667 174,84.8333 173.5,85C 175.332,85.7485 176.999,86.7485 178.5,88C 175.672,86.9085 172.672,86.5752 169.5,87C 168.023,88.8121 166.69,90.6455 165.5,92.5C 167.192,84.4872 171.858,81.9872 179.5,85C 181.019,86.3513 182.352,87.8513 183.5,89.5C 185.098,88.5153 186.765,88.3486 188.5,89C 186.027,89.2195 184.36,90.3862 183.5,92.5 Z"/></g>
<g><path style="opacity:1" fill="#a397b0" d="M 243.5,79.5 C 245.305,80.2371 246.971,81.2371 248.5,82.5C 252.872,78.6739 253.539,79.5073 250.5,85C 253.054,90.1041 252.221,90.6041 248,86.5C 246.671,87.4939 245.338,88.4939 244,89.5C 243.5,89.1667 243,88.8333 242.5,88.5C 244.012,87.7506 245.012,86.584 245.5,85C 244.144,83.4329 243.477,81.5996 243.5,79.5 Z"/></g>
<g><path style="opacity:1" fill="#f1f0f5" d="M 183.5,92.5 C 182.62,94.6112 182.62,96.6112 183.5,98.5C 177.5,98.5 171.5,98.5 165.5,98.5C 165.046,96.7411 165.046,94.7411 165.5,92.5C 166.69,90.6455 168.023,88.8121 169.5,87C 172.672,86.5752 175.672,86.9085 178.5,88C 176.999,86.7485 175.332,85.7485 173.5,85C 174,84.8333 174.5,84.6667 175,84.5C 179.03,86.0337 181.864,88.7003 183.5,92.5 Z"/></g>
<g><path style="opacity:1" fill="#514a6f" d="M 191.5,93.5 C 191.167,92.5 190.5,91.8333 189.5,91.5C 189.877,89.742 190.544,88.0754 191.5,86.5C 195.85,84.9128 200.35,83.9128 205,83.5C 206.658,83.6752 207.991,84.3418 209,85.5C 209.497,88.146 209.664,90.8127 209.5,93.5C 204.811,93.9479 200.145,94.6145 195.5,95.5C 193.645,95.6598 192.312,94.9931 191.5,93.5 Z"/></g>
<g><path style="opacity:1" fill="#504781" d="M 198.5,86.5 C 201.5,86.5 204.5,86.5 207.5,86.5C 207.5,88.1667 207.5,89.8333 207.5,91.5C 203.289,93.0778 198.956,93.5778 194.5,93C 192.808,91.5993 192.141,89.7659 192.5,87.5C 194.735,87.7947 196.735,87.4614 198.5,86.5 Z"/></g>
<g><path style="opacity:1" fill="#27292c" d="M 94.5,92.5 C 96.4646,92.9483 96.7979,93.9483 95.5,95.5C 94.6143,94.675 94.281,93.675 94.5,92.5 Z"/></g>
<g><path style="opacity:1" fill="#9d99b1" d="M 189.5,91.5 C 190.5,91.8333 191.167,92.5 191.5,93.5C 189.565,94.1495 187.565,94.4828 185.5,94.5C 185.5,95.5 185.5,96.5 185.5,97.5C 192.5,97.5 199.5,97.5 206.5,97.5C 206.5,98.8333 206.5,100.167 206.5,101.5C 206.167,101.5 205.833,101.5 205.5,101.5C 205.5,100.5 205.5,99.5 205.5,98.5C 198.978,98.1765 192.645,98.5098 186.5,99.5C 185.391,99.4431 184.391,99.1098 183.5,98.5C 182.62,96.6112 182.62,94.6112 183.5,92.5C 185.735,92.7947 187.735,92.4614 189.5,91.5 Z"/></g>
<g><path style="opacity:1" fill="#746f8c" d="M 165.5,92.5 C 165.046,94.7411 165.046,96.7411 165.5,98.5C 165.367,101.896 164.367,102.229 162.5,99.5C 157.621,99.6869 152.621,99.6869 147.5,99.5C 152.64,98.5119 157.974,98.1786 163.5,98.5C 163.259,96.1016 163.926,94.1016 165.5,92.5 Z"/></g>
<g><path style="opacity:1" fill="#4b436f" d="M 205.5,101.5 C 198.978,101.823 192.645,101.49 186.5,100.5C 186.5,100.167 186.5,99.8333 186.5,99.5C 192.645,98.5098 198.978,98.1765 205.5,98.5C 205.5,99.5 205.5,100.5 205.5,101.5 Z"/></g>
<g><path style="opacity:1" fill="#4f4778" d="M 165.5,98.5 C 171.5,98.5 177.5,98.5 183.5,98.5C 183.5,99.8333 183.5,101.167 183.5,102.5C 172.167,102.5 160.833,102.5 149.5,102.5C 148.5,102.5 147.5,102.5 146.5,102.5C 146.557,101.391 146.89,100.391 147.5,99.5C 152.621,99.6869 157.621,99.6869 162.5,99.5C 164.367,102.229 165.367,101.896 165.5,98.5 Z"/></g>
<g><path style="opacity:1" fill="#dbdbdb" d="M -0.5,122.5 C -0.5,120.167 -0.5,117.833 -0.5,115.5C 1.55961,112.956 4.22628,111.122 7.5,110C 9.66597,103.749 13.9993,101.416 20.5,103C 26.3513,110.592 34.0179,115.092 43.5,116.5C 44.0065,120.007 43.3398,123.174 41.5,126C 28.8333,126.667 16.1667,126.667 3.5,126C 2.29493,124.624 0.961599,123.458 -0.5,122.5 Z"/></g>
<g><path style="opacity:1" fill="#1f2345" d="M 239.5,103.5 C 240.873,103.343 242.207,103.51 243.5,104C 244.674,106.829 243.674,107.829 240.5,107C 239.663,105.989 239.33,104.822 239.5,103.5 Z"/></g>
<g><path style="opacity:1" fill="#fbfbfb" d="M 13.5,105.5 C 19.4676,104.459 22.8009,106.792 23.5,112.5C 26.7553,112.014 29.422,113.014 31.5,115.5C 34.1667,116.167 36.8333,116.833 39.5,117.5C 41.0863,119.173 41.7529,121.173 41.5,123.5C 28.8289,123.667 16.1623,123.5 3.5,123C 0.790906,116.202 3.12424,112.702 10.5,112.5C 9.90934,109.325 10.9093,106.991 13.5,105.5 Z"/></g>
<g><path style="opacity:1" fill="#958cc3" d="M 183.5,98.5 C 184.391,99.1098 185.391,99.4431 186.5,99.5C 186.5,99.8333 186.5,100.167 186.5,100.5C 185.624,100.369 184.957,100.702 184.5,101.5C 190.807,102.331 197.141,102.831 203.5,103C 202.903,104.062 202.57,105.228 202.5,106.5C 205.025,125.576 207.692,144.576 210.5,163.5C 210.5,164.833 210.5,166.167 210.5,167.5C 186.499,168 162.499,168.167 138.5,168C 137.892,166.769 137.559,165.436 137.5,164C 138.541,151.965 140.541,140.131 143.5,128.5C 143.013,127.554 142.68,126.554 142.5,125.5C 144.313,119.658 144.98,113.658 144.5,107.5C 147.833,107.5 149.5,105.833 149.5,102.5C 160.833,102.5 172.167,102.5 183.5,102.5C 183.5,101.167 183.5,99.8333 183.5,98.5 Z"/></g>
<g><path style="opacity:1" fill="#a6d2e5" d="M 94.5,110.5 C 102.163,111.925 102.496,114.592 95.5,118.5C 89.4146,116.024 89.0812,113.358 94.5,110.5 Z"/></g>
<g><path style="opacity:1" fill="#a097ad" d="M 247.5,117.5 C 251.167,117.5 254.833,117.5 258.5,117.5C 258.5,120.833 258.5,124.167 258.5,127.5C 255.15,127.665 251.817,127.498 248.5,127C 247.549,123.943 247.216,120.777 247.5,117.5 Z"/></g>
<g><path style="opacity:1" fill="#e0d8ea" d="M 250.5,118.5 C 252.5,118.5 254.5,118.5 256.5,118.5C 256.5,120.833 256.5,123.167 256.5,125.5C 254.167,125.5 251.833,125.5 249.5,125.5C 249.298,123.05 249.631,120.717 250.5,118.5 Z"/></g>
<g><path style="opacity:1" fill="#b8aebe" d="M 106.5,127.5 C 111.159,127.015 112.492,128.848 110.5,133C 106.126,133.424 104.792,131.591 106.5,127.5 Z"/></g>
<g><path style="opacity:1" fill="#dadada" d="M 379.5,119.5 C 379.5,122.5 379.5,125.5 379.5,128.5C 377.599,130.796 375.266,132.629 372.5,134C 351.5,134.667 330.5,134.667 309.5,134C 308.069,133.535 306.903,132.701 306,131.5C 304.631,126.563 305.797,122.396 309.5,119C 314.104,117.939 318.771,117.273 323.5,117C 326.326,111.919 330.659,109.419 336.5,109.5C 338.064,101.273 343.064,96.9394 351.5,96.5C 359.842,97.6418 364.509,102.309 365.5,110.5C 371.748,111.088 376.415,114.088 379.5,119.5 Z"/></g>
<g><path style="opacity:1" fill="#fcfcfc" d="M 345.5,99.5 C 356.278,97.6444 361.945,101.978 362.5,112.5C 373.188,113.055 377.521,118.555 375.5,129C 374.692,129.308 374.025,129.808 373.5,130.5C 352.174,131.666 330.841,131.833 309.5,131C 307.303,126.013 308.636,122.346 313.5,120C 317.167,119.667 320.833,119.333 324.5,119C 327.779,113.112 332.779,110.946 339.5,112.5C 339.337,110.143 339.503,107.81 340,105.5C 342.074,103.658 343.907,101.658 345.5,99.5 Z"/></g>
<g><path style="opacity:1" fill="#080a16" d="M 256.5,138.5 C 258.337,138.639 258.67,139.306 257.5,140.5C 256.702,140.043 256.369,139.376 256.5,138.5 Z"/></g>
<g><path style="opacity:1" fill="#25374a" d="M 108.5,144.5 C 105.878,145.033 103.378,146.033 101,147.5C 100.007,153.502 102.507,155.668 108.5,154C 109.926,151.955 110.926,149.788 111.5,147.5C 112.269,155.81 108.602,158.31 100.5,155C 97.4314,150.675 98.0981,147.008 102.5,144C 104.712,143.211 106.712,143.378 108.5,144.5 Z"/></g>
<g><path style="opacity:1" fill="#796eae" d="M 186.5,100.5 C 192.645,101.49 198.978,101.823 205.5,101.5C 205.833,101.5 206.167,101.5 206.5,101.5C 207.752,110.515 209.085,119.515 210.5,128.5C 210.334,135.175 210.5,141.842 211,148.5C 213.738,153.097 214.571,157.93 213.5,163C 212.552,163.483 211.552,163.649 210.5,163.5C 207.692,144.576 205.025,125.576 202.5,106.5C 202.57,105.228 202.903,104.062 203.5,103C 197.141,102.831 190.807,102.331 184.5,101.5C 184.957,100.702 185.624,100.369 186.5,100.5 Z"/></g>
<g><path style="opacity:1" fill="#add3e7" d="M 108.5,144.5 C 109.5,145.5 110.5,146.5 111.5,147.5C 110.926,149.788 109.926,151.955 108.5,154C 102.507,155.668 100.007,153.502 101,147.5C 103.378,146.033 105.878,145.033 108.5,144.5 Z"/></g>
<g><path style="opacity:1" fill="#938db4" d="M 146.5,102.5 C 147.5,102.5 148.5,102.5 149.5,102.5C 149.5,105.833 147.833,107.5 144.5,107.5C 144.98,113.658 144.313,119.658 142.5,125.5C 142.68,126.554 143.013,127.554 143.5,128.5C 140.541,140.131 138.541,151.965 137.5,164C 137.559,165.436 137.892,166.769 138.5,168C 162.499,168.167 186.499,168 210.5,167.5C 210.5,166.167 210.5,164.833 210.5,163.5C 211.552,163.649 212.552,163.483 213.5,163C 214.571,157.93 213.738,153.097 211,148.5C 210.5,141.842 210.334,135.175 210.5,128.5C 212.198,138.521 213.864,148.687 215.5,159C 215.677,162.812 214.343,165.979 211.5,168.5C 186.202,170.261 160.869,170.928 135.5,170.5C 138.359,147.912 140.692,125.246 142.5,102.5C 143.833,102.5 145.167,102.5 146.5,102.5 Z"/></g>
<g><path style="opacity:1" fill="#4f467d" d="M 167.5,144.5 C 172.797,143.539 176.963,145.206 180,149.5C 180.781,150.944 180.614,152.277 179.5,153.5C 176.702,146.394 172.035,144.728 165.5,148.5C 164.316,150.046 163.316,151.713 162.5,153.5C 161.432,151.813 161.599,150.146 163,148.5C 164.397,146.93 165.897,145.596 167.5,144.5 Z"/></g>
<g><path style="opacity:1" fill="#373737" d="M 161.5,218.5 C 161.44,217.957 161.107,217.624 160.5,217.5C 159.526,219.743 159.192,222.076 159.5,224.5C 156.715,212.741 158.549,211.407 165,220.5C 165.186,218.1 165.686,215.766 166.5,213.5C 167.833,217.167 167.833,220.833 166.5,224.5C 164.81,222.481 163.144,220.481 161.5,218.5 Z"/></g>
<g><path style="opacity:1" fill="#444444" d="M 265.5,213.5 C 266.787,214.871 267.453,216.705 267.5,219C 267.167,220.833 266.833,222.667 266.5,224.5C 264.979,224.12 263.313,223.954 261.5,224C 259.404,219.592 260.738,217.092 265.5,216.5C 265.5,215.5 265.5,214.5 265.5,213.5 Z"/></g>
<g><path style="opacity:1" fill="#343434" d="M 118.5,223.5 C 117.351,223.209 116.684,222.376 116.5,221C 116.543,218.624 117.709,217.124 120,216.5C 123.911,218.313 124.411,220.813 121.5,224C 120.251,224.74 119.251,224.573 118.5,223.5 Z"/></g>
<g><path style="opacity:1" fill="#363636" d="M 125.5,216.5 C 126.975,217.262 128.309,217.595 129.5,217.5C 128.119,219.635 127.119,221.968 126.5,224.5C 125.52,221.914 125.187,219.247 125.5,216.5 Z"/></g>
<g><path style="opacity:1" fill="#363636" d="M 131.5,216.5 C 132.975,217.262 134.309,217.595 135.5,217.5C 134.119,219.635 133.119,221.968 132.5,224.5C 131.52,221.914 131.187,219.247 131.5,216.5 Z"/></g>
<g><path style="opacity:1" fill="#474747" d="M 149.5,213.5 C 150.725,214.152 151.392,215.319 151.5,217C 151.167,218.167 150.833,219.333 150.5,220.5C 149.526,218.257 149.192,215.924 149.5,213.5 Z"/></g>
<g><path style="opacity:1" fill="#353535" d="M 188.5,214.5 C 189.452,215.452 190.452,216.452 191.5,217.5C 188.833,219.5 188.833,221.5 191.5,223.5C 190.675,224.386 189.675,224.719 188.5,224.5C 188.018,221.054 188.018,217.721 188.5,214.5 Z"/></g>
<g><path style="opacity:1" fill="#4b4b4b" d="M 201.5,216.5 C 204.927,217.098 208.26,217.265 211.5,217C 212.777,219.466 212.777,221.966 211.5,224.5C 210.167,216.5 208.833,216.5 207.5,224.5C 205.833,215.167 204.167,215.167 202.5,224.5C 201.52,221.914 201.187,219.247 201.5,216.5 Z"/></g>
<g><path style="opacity:1" fill="#464646" d="M 215.5,216.5 C 219.971,216.672 220.304,217.506 216.5,219C 219.346,219.879 220.013,221.546 218.5,224C 217.056,224.781 215.723,224.614 214.5,223.5C 215.989,223.467 217.322,222.967 218.5,222C 214.75,221.558 213.75,219.724 215.5,216.5 Z"/></g>
<g><path style="opacity:1" fill="#252525" d="M 226.5,213.5 C 228.604,213.201 230.604,213.534 232.5,214.5C 230.955,215.452 229.288,215.785 227.5,215.5C 227.5,216.5 227.5,217.5 227.5,218.5C 232.833,218.833 232.833,219.167 227.5,219.5C 227.66,221.199 227.494,222.866 227,224.5C 226.501,220.848 226.335,217.182 226.5,213.5 Z"/></g>
<g><path style="opacity:1" fill="#888888" d="M 253.5,217.5 C 252.532,219.607 252.198,221.941 252.5,224.5C 251.2,221.976 251.2,219.309 252.5,216.5C 253.107,216.624 253.44,216.957 253.5,217.5 Z"/></g>
<g><path style="opacity:1" fill="#fbfbfb" d="M 262.5,218.5 C 263.5,218.5 264.5,218.5 265.5,218.5C 265.5,219.833 265.5,221.167 265.5,222.5C 264.5,222.5 263.5,222.5 262.5,222.5C 262.5,221.167 262.5,219.833 262.5,218.5 Z"/></g>
<g><path style="opacity:1" fill="#5d5d5d" d="M 183.5,213.5 C 184.787,214.871 185.453,216.705 185.5,219C 185.167,220.833 184.833,222.667 184.5,224.5C 183.511,220.893 183.177,217.226 183.5,213.5 Z"/></g>
<g><path style="opacity:1" fill="#3d3d3d" d="M 235.5,216.5 C 236.93,216.421 238.264,216.754 239.5,217.5C 241.708,224.133 239.875,225.8 234,222.5C 233.252,220.16 233.752,218.16 235.5,216.5 Z"/></g>
<g><path style="opacity:1" fill="#efefef" d="M 235.5,218.5 C 238.5,218.167 239.833,219.5 239.5,222.5C 238.167,222.5 236.833,222.5 235.5,222.5C 235.5,221.167 235.5,219.833 235.5,218.5 Z"/></g>
<g><path style="opacity:1" fill="#999999" d="M 161.5,218.5 C 160.833,220.5 160.167,222.5 159.5,224.5C 159.192,222.076 159.526,219.743 160.5,217.5C 161.107,217.624 161.44,217.957 161.5,218.5 Z"/></g>
<g><path style="opacity:1" fill="#414141" d="M 252.5,224.5 C 252.198,221.941 252.532,219.607 253.5,217.5C 254.802,216.193 256.135,216.193 257.5,217.5C 258.833,219.833 258.833,222.167 257.5,224.5C 256.534,222.604 256.201,220.604 256.5,218.5C 255.5,218.5 254.5,218.5 253.5,218.5C 253.795,220.735 253.461,222.735 252.5,224.5 Z"/></g>
<g><path style="opacity:1" fill="#dedede" d="M 118.5,223.5 C 117.021,221.088 117.521,219.088 120,217.5C 122.29,220.344 121.79,222.344 118.5,223.5 Z"/></g>
<g><path style="opacity:1" fill="#393939" d="M 137.5,216.5 C 138.479,217.765 139.479,219.099 140.5,220.5C 141.5,219.167 142.5,217.833 143.5,216.5C 143.833,216.667 144.167,216.833 144.5,217C 142.735,220.14 141.068,223.306 139.5,226.5C 139.176,223.408 138.51,220.075 137.5,216.5 Z"/></g>
<g><path style="opacity:1" fill="#2d2d2d" d="M 194.5,216.5 C 197.95,215.756 199.616,217.09 199.5,220.5C 192.864,221.022 192.864,221.855 199.5,223C 198.07,224.44 196.403,224.774 194.5,224C 193.221,221.502 193.221,219.002 194.5,216.5 Z"/></g>
<g><path style="opacity:1" fill="#cfcfcf" d="M 195.5,217.5 C 196.756,217.461 197.756,217.961 198.5,219C 197.167,219.667 195.833,219.667 194.5,219C 195.056,218.617 195.389,218.117 195.5,217.5 Z"/></g>
<g><path style="opacity:1" fill="#363636" d="M 109.5,213.5 C 116.057,214.395 116.057,215.395 109.5,216.5C 111.646,217.556 113.312,219.056 114.5,221C 112.991,224.627 110.658,225.294 107.5,223C 109.134,222.506 110.801,222.34 112.5,222.5C 112.5,221.5 112.5,220.5 112.5,219.5C 107.294,219.541 106.294,217.541 109.5,213.5 Z"/></g>
<g><path style="opacity:1" fill="#3c3c3c" d="M 149.5,222.5 C 151.337,222.639 151.67,223.306 150.5,224.5C 149.702,224.043 149.369,223.376 149.5,222.5 Z"/></g>
<g><path style="opacity:1" fill="#3c3c3c" d="M 171.5,216.5 C 172.93,216.421 174.264,216.754 175.5,217.5C 177.708,224.133 175.875,225.8 170,222.5C 169.252,220.16 169.752,218.16 171.5,216.5 Z"/></g>
<g><path style="opacity:1" fill="#e4e4e4" d="M 171.5,218.5 C 175.961,219.048 176.461,220.715 173,223.5C 171.731,222.095 171.231,220.429 171.5,218.5 Z"/></g>
<g><path style="opacity:1" fill="#545454" d="M 242.5,216.5 C 244.308,217.918 244.975,219.918 244.5,222.5C 245.5,222.5 246.5,222.5 247.5,222.5C 247.201,220.396 247.534,218.396 248.5,216.5C 249.48,219.086 249.813,221.753 249.5,224.5C 243.604,225.152 241.27,222.485 242.5,216.5 Z"/></g>
<g><path style="opacity:1" fill="#404040" d="M 269.5,222.5 C 271.337,222.639 271.67,223.306 270.5,224.5C 269.702,224.043 269.369,223.376 269.5,222.5 Z"/></g>
</svg>
